<svg viewBox="0 0 400 200" xmlns="http://www.w3.org/2000/svg">
  <rect x="0" y="0" width="400" height="200" fill="#FFFFFF" />
  <g>
    <animateTransform
      attributeName="transform"
      attributeType="XML"
      type="translate"
      from="-300 98"
      to="700 98"
      dur="5.4s"
      repeatCount="indefinite"
    />

    <g>
      <g transform="translate(0 -130) scale(0.532)">
        <g transform="translate(696 0) scale(-1 1)">
          <g fill="none" stroke="rgb(17, 49, 245)" stroke-linecap="round" stroke-linejoin="round">
            <path d="M263.868 275.581C232.413 275.581 206.931 299.233 206.931 328.425C206.931 357.616 232.413 381.3 263.868 381.3C295.324 381.299 320.837 357.616 320.837 328.425C320.837 299.233 295.324 275.581 263.868 275.581Z" stroke-width="1.77712" />
            <path d="M210.228 313.063C209.524 311.566 226.609 309.746 228.894 309.628C234.225 309.355 249.997 304.524 251.907 307.429" stroke-width="1" />
            <path d="M274.309 303.027C276.95 301.291 294.311 301.884 298.957 301.334C301.557 301.026 308.647 299.98 308.427 300.038C306.317 300.599 311.35 298.911 310.823 299.579" stroke-width="1" />
            <path d="M210.745 313.002C210.443 310.449 211.503 318.606 213.522 320.197C214.478 320.951 229.665 317.236 232.727 316.874C234.979 316.607 247.816 315.906 247.974 315.594C248.857 313.856 252.921 306.285 251.989 308.119" stroke-width="1" />
            <path d="M274.37 303.545C274.345 303.618 278.031 311.837 278.282 311.805C284.517 311.026 295.268 310.039 302.447 308.437C308.144 307.165 308.644 306.334 310.417 301.142C311.632 297.583 309.958 300.004 310.09 301.182" stroke-width="1" />
            <path d="M208.703 338.616C210.645 341.571 221.932 344.956 225.744 346.573C236.129 350.98 250.348 370.867 248.66 379.032" stroke-width="1" />
            <path d="M320.681 328.16C317.704 331.936 306.232 335.038 301.298 338.854C288.105 349.057 288.338 360.929 290.067 375.53" stroke-width="1" />
            <path d="M248.835 379.057C248.414 380.503 251.675 374.703 251.909 374.231C254.066 369.883 254.654 368.406 258.85 367.308C267.084 365.152 287.921 362.538 289.228 376.203" stroke-width="1" />
            <path d="M234.095 285.565C234.403 284.709 239.53 291.046 240.85 290.889C248.124 290.028 256.827 289.479 264.503 289.664C267.063 289.726 274.885 289.202 275.536 286.783C276.134 284.558 276.587 282.259 277.368 280.092C277.559 279.562 278.723 277.018 278.483 277.685" stroke-width="1" />
            <path d="M251.116 306.067C249.578 306.836 258.244 305.651 259.18 305.552C263.682 305.078 270.937 304.821 274.965 302.807" stroke-width="1" />
            <path d="M317.639 304.144C316.95 304.833 317.282 304.438 316.671 305.353" stroke-width="1.77712" />
            <path d="M316.188 305.837C318.04 302.133 332.256 303.419 335.774 303.419C353.257 303.419 370.774 300.275 388.002 300.275" stroke-width="1.77712" />
            <path d="M314.979 353.955C339.576 353.955 365.008 351.053 389.211 351.053" stroke-width="1.77712" />
            <path d="M388.727 300.034C389.892 297.705 397.765 313.399 398.157 315.751C400.656 330.743 404.33 343.252 389.694 350.569" stroke-width="1.77712" />
            <path d="M321.507 331.951C332.713 330.227 350.702 331.136 360.679 326.148" stroke-width="1.77712" />
            <path d="M319.089 346.701C331.547 342.548 353.099 341.623 365.998 341.623" stroke-width="1.77712" />
            <path d="M362.129 325.906C364.033 331.616 370.463 335.837 366.724 343.316" stroke-width="1.77712" />
            <path d="M363.338 326.631C361.417 326.631 365.968 326.631 366.482 326.631C369.395 326.631 372.641 327.077 375.428 326.148C380.436 324.479 373.483 327.703 374.219 328.808C375.465 330.676 382.575 327.942 384.375 329.291C386.113 330.595 380.993 331.703 380.506 332.676C378.506 336.676 374.726 336.523 368.416 342.832" stroke-width="1.77712" />
            <path d="M390.903 300.759C390.899 300.76 394.481 299.935 397.432 300.034C404.122 300.257 410.814 300.465 417.501 300.759C430.722 301.34 443.883 305.837 456.914 305.837" stroke-width="1.77712" />
            <path d="M393.805 349.36C392.744 349.891 409.561 344.372 413.874 342.832C429.128 337.384 444.836 334.67 460.783 332.676" stroke-width="1.77712" />
            <path d="M458.123 306.079C454.776 312.774 460.957 327.144 458.849 335.578" stroke-width="1.77712" />
            <path d="M458.849 306.804C457.488 307.258 467.169 307.586 469.73 308.013C479.53 309.646 478.282 306.186 474.807 311.398C473.08 313.989 485.388 310.305 483.996 313.091C482.785 315.512 477.479 316.833 475.291 317.927C474.091 318.527 470.833 319.298 471.906 320.103C472.89 320.841 473.882 321.648 475.049 322.037C477.73 322.931 484.776 319.994 483.512 322.521C481.756 326.033 467.035 331.243 462.234 333.644" stroke-width="1.77712" />
            <path d="M321.561 320.787C333.361 320.787 340.791 324.128 350.69 329.077" stroke-width="1.77712" />
          </g>
          <path d="M403.719 301.001C408.178 315.495 410.813 331.464 405.895 346.217" fill="none" stroke="rgb(17, 49, 245)" stroke-linecap="round" stroke-linejoin="round" stroke-width="1.77712" />
        </g>
      </g>

      <g transform="translate(75 40)" stroke="rgb(17, 49, 245)" stroke-width="2" stroke-linecap="round" opacity="0.62">
        <line x1="22" y1="-6" x2="10" y2="-6">
          <animate attributeName="x2" values="-12;-62;-12" dur="0.17s" repeatCount="indefinite" />
        </line>
        <line x1="20" y1="-4" x2="10" y2="-4">
          <animate attributeName="x2" values="-10;-58;-10" dur="0.16s" repeatCount="indefinite" />
        </line>
        <line x1="18" y1="-2" x2="9" y2="-2">
          <animate attributeName="x2" values="-8;-54;-8" dur="0.145s" repeatCount="indefinite" />
        </line>
        <line x1="18" y1="2" x2="9" y2="2">
          <animate attributeName="x2" values="-8;-54;-8" dur="0.13s" repeatCount="indefinite" />
        </line>
        <line x1="20" y1="4" x2="10" y2="4">
          <animate attributeName="x2" values="-10;-58;-10" dur="0.12s" repeatCount="indefinite" />
        </line>
        <line x1="22" y1="6" x2="10" y2="6">
          <animate attributeName="x2" values="-12;-62;-12" dur="0.11s" repeatCount="indefinite" />
        </line>
      </g>
    </g>
  </g>
</svg>
